<?xml version="1.0" encoding="iso-8859-1"?>
<!-- Generator: Adobe Illustrator 19.0.0, SVG Export Plug-In . SVG Version: 6.00 Build 0)  -->
<svg version="1.1" id="Capa_1" xmlns="http://www.w3.org/2000/svg" xmlns:xlink="http://www.w3.org/1999/xlink" x="0px" y="0px"
	 viewBox="0 0 538.043 538.043" style="enable-background:new 0 0 538.043 538.043;" xml:space="preserve">
<g>
	<path d="M399.495,480.568c-8.728,3.336-17.827,6.038-27.321,7.963l61.959,47.144c2.056,1.59,4.484,2.344,6.911,2.344
		c3.443,0,6.863-1.554,9.111-4.508c3.826-5.046,2.87-12.208-2.188-16.057L399.495,480.568z"/>
	<path d="M90.084,517.478c-5.046,3.838-6.014,11.012-2.188,16.057c2.248,2.953,5.667,4.508,9.111,4.508
		c2.427,0,4.854-0.765,6.923-2.332l61.947-47.144c-9.494-1.937-18.592-4.651-27.321-7.987L90.084,517.478z"/>
	<path d="M473.948,353.602c-7.82-62.162-11.048-163.948-7.186-226.887c1.805-29.006-8.836-57.391-30.023-79.953
		C408.809,17.062,365.981,0,319.207,0H218.82c-46.774,0-89.614,17.062-117.532,46.774C80.125,69.336,69.472,97.72,71.277,126.715
		c3.862,62.951,0.645,164.725-7.174,226.923c-3.635,29.198,5.464,57.87,25.587,80.623c26.257,29.724,68.128,46.774,114.842,46.774
		h128.951c46.714,0,88.586-17.05,114.842-46.774C468.484,411.496,477.559,382.848,473.948,353.602z M117.991,62.449
		c23.626-25.145,60.38-39.564,100.853-39.564h100.375c40.473,0,77.227,14.419,100.853,39.564
		c16.93,18.054,25.168,39.636,23.841,62.437c-13.284,86.075-51.222,113.384-51.545,113.587c-5.225,3.491-6.66,10.498-3.24,15.735
		c2.2,3.384,29.305,29.999,56.219,35.69c0.55,9.123,1.184,18.042,1.853,26.651c-6.72,11.514-45.985,66.765-178.164,66.765
		c-132.131,0-171.421-55.203-178.176-66.765c0.682-8.453,1.291-17.265,1.841-26.233c26.926-5.572,54.151-32.761,56.315-36.192
		c3.288-5.189,1.817-12.1-3.216-15.591c-0.394-0.251-38.345-27.56-51.64-113.635C92.81,102.097,101.06,80.504,117.991,62.449z
		 M333.507,458.126H204.544c-40.174,0-75.768-14.204-97.685-39.038c-15.95-18.042-22.885-39.708-20.027-62.616
		c0.645-5.237,1.244-10.797,1.841-16.512c16.297,24.164,61.385,66.251,180.34,66.251s164.043-42.087,180.34-66.275
		c0.598,5.727,1.22,11.287,1.841,16.512c2.846,22.933-4.089,44.598-20.039,62.64C409.263,443.922,373.681,458.126,333.507,458.126z"
		/>
	<path d="M131.896,165.395c7.198,36.037,42.948,65.342,79.678,65.342h114.902c36.718,0,72.48-29.305,79.666-65.342l6.229-31.099
		c3.683-18.365-0.299-35.798-11.227-49.141c-10.952-13.331-27.273-20.673-45.997-20.673H182.915
		c-18.712,0-35.045,7.341-45.997,20.673c-10.928,13.343-14.91,30.776-11.239,49.141L131.896,165.395z"/>
	<path d="M207.88,268.029c-1.805-4.173-5.918-6.851-10.486-6.851h-31.876c-3.874,0-7.473,1.937-9.589,5.189
		c-2.116,3.24-2.451,7.329-0.897,10.856l28.66,65.402c1.83,4.173,5.943,6.851,10.486,6.851h31.9c0.096,0,0.167,0,0.215,0
		c6.325,0,11.466-5.129,11.466-11.442c0-2.451-0.753-4.675-2.044-6.54L207.88,268.029z"/>
	<path d="M372.533,261.178h-31.876c-4.567,0-8.68,2.69-10.498,6.851l-28.672,65.378c-1.554,3.551-1.196,7.64,0.909,10.868
		c2.104,3.228,5.727,5.201,9.577,5.201h31.9c4.555,0,8.669-2.702,10.486-6.851l28.66-65.402c1.554-3.527,1.231-7.628-0.897-10.856
		C380.006,263.116,376.395,261.178,372.533,261.178z"/>
	<path d="M269.025,413.289c-11.036,0-20.015,9.039-20.015,20.123c0,11.036,8.979,20.015,20.015,20.015
		c11.036,0,20.015-8.979,20.015-20.015C289.041,422.328,280.061,413.289,269.025,413.289z"/>
</g>
<g>
</g>
<g>
</g>
<g>
</g>
<g>
</g>
<g>
</g>
<g>
</g>
<g>
</g>
<g>
</g>
<g>
</g>
<g>
</g>
<g>
</g>
<g>
</g>
<g>
</g>
<g>
</g>
<g>
</g>
</svg>
